<?xml version="1.0" encoding="UTF-8"?>
<svg width="32px" height="38px" viewBox="0 0 32 38" version="1.1" xmlns="http://www.w3.org/2000/svg" xmlns:xlink="http://www.w3.org/1999/xlink">
    <title>Group 12</title>
    <g id="Лого" stroke="none" stroke-width="1" fill="none" fill-rule="evenodd">
        <g id="Group-12" fill="#F88200">
            <path d="M31.0909933,20.9346721 C30.8776026,19.9684744 30.5621556,19.0679407 30.1353743,18.2424515 C30.1353743,18.2330709 30.1353743,18.2330709 30.1260964,18.2236903 C30.1260964,18.2236903 30.1260964,18.2236903 30.1260964,18.2143098 C27.4819079,12.1919906 22.7873137,10.3534009 19.6328432,9.81870901 L24.2253811,4.45302896 L27.4262408,0.700805153 L20.0503466,0.700805153 L14.7063026,6.95763836 L13.5651265,8.27091669 C13.1661788,8.73056411 12.7857867,9.19021152 12.4146726,9.64047838 L1.15135744,9.63109782 L1.15135744,9.62171726 L0.474074074,14.7997861 L8.54580731,14.7997861 C5.68822819,19.0960824 4.25943863,22.7357395 4.25943863,25.7187574 C4.25943863,29.3208923 5.37278114,32.2101046 7.59946617,34.395775 C9.8261512,36.5814453 12.7765089,37.6695902 16.4690949,37.6695902 C20.7740193,37.6695902 24.3367153,36.375073 27.1664609,33.776658 C29.9962064,31.1782431 31.4064403,27.94195 31.4064403,24.0677789 C31.4064403,22.9608729 31.3043839,21.9102502 31.0909933,20.9346721 Z M25.3016122,24.8276043 L25.2273893,25.3716767 C25.0047208,27.2008858 24.2624925,28.7486781 23.0099822,30.0150537 C21.4791362,31.562846 19.5400647,32.3320519 17.1927675,32.3320519 C15.1145282,32.3320519 13.4537922,31.7035544 12.2105598,30.4371789 C10.9766051,29.1708033 10.3549889,27.4823026 10.3549889,25.3622961 C10.3549889,24.6399931 10.4199339,23.9645928 10.5591017,23.3173342 C10.5591017,23.3079536 10.5591017,23.2985731 10.5591017,23.2891925 C10.9023823,20.6626358 13.5558486,17.0229787 15.3464745,14.8091667 L16.0423136,14.8091667 L16.6175405,14.8091667 C18.0741637,14.8279278 25.951062,15.4001419 25.3016122,24.8276043 Z" id="Shape"></path>
        </g>
    </g>
</svg>