<?xml version="1.0" encoding="UTF-8"?>
<svg width="128px" height="42px" viewBox="0 0 128 42" version="1.1" xmlns="http://www.w3.org/2000/svg" xmlns:xlink="http://www.w3.org/1999/xlink">
    <title>Group 26</title>
    <g id="Товар" stroke="none" stroke-width="1" fill="none" fill-rule="evenodd">
        <g id="Desktop-HD" transform="translate(-142.000000, -59.000000)">
            <g id="Шапка-Copy-3" transform="translate(142.000000, 7.000000)">
                <g id="opt6_svg" transform="translate(0.000000, 52.000000)">
                    <path d="M32.8848872,15.0049886 L33.0788266,14.0195001 C32.9939781,14.3403568 32.933372,14.668853 32.8848872,15.0049886 Z M29.3746336,9.88547869 C29.3552397,9.93023393 29.3164518,9.98990759 29.2970578,10.0346628 C29.3358457,9.97498918 29.3746336,9.9003971 29.4134215,9.84072344 C29.3940275,9.85564186 29.3940275,9.87056027 29.3746336,9.88547869 Z M28.9926467,10.7032672 C28.9926467,10.7146754 28.9732527,10.7260836 28.9732527,10.7374918 C29.0120406,10.6804508 29.0508285,10.6120016 29.0896164,10.5435524 C29.0702224,10.6005934 29.0314346,10.6576344 28.9926467,10.7032672 Z M28.6671538,11.6489289 C28.6477599,11.6812522 28.6283659,11.7135754 28.608972,11.7458986 C28.6477599,11.6812522 28.6865478,11.6166057 28.7253356,11.5519592 C28.7059417,11.573508 28.6865478,11.6058313 28.6671538,11.6489289 Z M32.8848872,15.0049886 L33.0788266,14.0195001 C32.9939781,14.3403568 32.933372,14.668853 32.8848872,15.0049886 Z" id="Shape" fill="#FDCC00" fill-rule="nonzero"></path>
                    <path d="M56.1962626,14.2839451 L55.7109014,18.3942786 L54.778098,26.255709 L54.778098,26.255709 L56.9698069,7.77591709 L56.1962626,14.2839451 Z M61.866492,7.07415284 L61.7695223,7.36655461 L61.866492,7.07415284 L61.866492,7.07415284 Z" id="Shape" fill="#FDCC00" fill-rule="nonzero"></path>
                    <polygon id="Path" fill="#FDCC00" fill-rule="nonzero" points="55.7002882 19.4315015 54.878336 27.1707247 54.878336 27.1707247 54.878336 27.1789492 54.778098 28.1000894"></polygon>
                    <polygon id="Path" fill="#FDCC00" fill-rule="nonzero" points="60.1363025 27.1778992 59.9423631 28.1000894"></polygon>
                    <polygon id="Path" fill="#FDCC00" fill-rule="nonzero" points="57.3602305 7.99634304 54.778098 26.255709 54.778098 26.255709 55.8770679 18.4880493 56.4488896 14.4267436"></polygon>
                    <polygon id="Path" fill="#FDCC00" fill-rule="nonzero" points="61.74776 7.07415284 61.6507903 7.26809223"></polygon>
                    <path d="M33.9461008,14.0827984 L33.7521614,16.6649309 C33.7521614,16.6568618 33.7521614,16.6487926 33.7521614,16.6407234 L33.7521614,16.6326543 L33.8665359,15.1398589 L33.8665359,15.1156514 L33.9461008,14.0827984 Z" id="Path" fill="#FDCC00" fill-rule="nonzero"></path>
                    <path d="M29.6749349,11.3162278 C29.655541,11.3514895 29.6167531,11.3867512 29.5973592,11.4308283 C29.5779652,11.4572746 29.5585713,11.4837209 29.5391774,11.5101672 C29.5779652,11.4396437 29.6361471,11.3779358 29.6749349,11.3162278 Z" id="Path" fill="#FDCC00" fill-rule="nonzero"></path>
                    <path d="M29.7040258,9.6562854 C29.6335024,9.95777066 29.5717944,10.2769903 29.5100865,10.5784756 C29.5717944,10.2769903 29.6335024,9.97550509 29.7040258,9.6562854 Z" id="Path" fill="#FDCC00" fill-rule="nonzero"></path>
                    <path d="M30.6262161,8.91853324 C30.5615696,9.24129981 30.4969231,9.54101163 30.4322767,9.84072344 C30.4969231,9.54101163 30.5615696,9.24129981 30.6262161,8.91853324 Z" id="Path" fill="#FDCC00" fill-rule="nonzero"></path>
                    <path d="M56.2034448,17.7912039 L55.7158262,21.9021282 L54.778098,29.7600318 L54.778098,29.7600318 L56.968631,11.2815512 L56.2034448,17.7912039 Z M61.866492,10.5784756 L61.7695223,10.8762488 L61.866492,10.5784756 L61.866492,10.5784756 Z" id="Shape" fill="#000000" fill-rule="nonzero"></path>
                    <polygon id="Path" fill="#000000" fill-rule="nonzero" points="55.7002882 22.0136341 54.8769041 29.7543168 54.8769041 29.7543168 54.8769041 29.7543168 54.778098 30.682222"></polygon>
                    <path d="M89.3551409,18.1377179 L89.3551409,18.1377179 C89.1645475,17.2747427 88.8828008,16.4704162 88.5016141,15.7331169 C88.5016141,15.7247385 88.5016141,15.7247385 88.4933274,15.7163601 L88.4933274,15.7163601 C88.4933274,15.7163601 88.4933274,15.7163601 88.4933274,15.7079817 C88.4933274,15.7079817 88.4933274,15.7079817 88.4933274,15.7079817 C86.131627,10.3290483 81.938573,8.68688178 79.1211059,8.20931293 L79.1211059,8.20931293 L83.2230066,3.41686764 L86.081907,0.065507304 L79.494006,0.065507304 L74.7208852,5.65390067 L73.7016251,6.82687679 C73.3452983,7.23741843 73.005545,7.64796007 72.6740782,8.05012331 L72.6740782,8.05012331 L62.6140633,8.04174491 L62.6140633,8.04174491 L62.6140633,8.03336651 L63.6001768,0.0738857048 L58.3961493,0.0738857048 L57.3603158,8.03336651 L57.3603158,8.04174491 L57.3603158,8.04174491 L47.0102675,8.03336651 L43.3392736,8.03336651 L39.8920197,8.03336651 L39.0964996,8.03336651 L12.4465753,8.00823131 L12.4465753,8.02498811 C8.89159475,8.17579933 5.96640095,9.44093786 3.67928059,11.8204037 C1.22642686,14.3590592 0,17.6433923 0,21.6566463 C0,25.100169 1.05240683,27.8650413 3.14893383,29.9345063 C5.24546084,32.0123497 8.05464128,33.0428931 11.5599018,33.0428931 C15.4877825,33.0428931 18.7030096,31.7861329 21.2055834,29.2726127 C23.7081571,26.7590924 24.959444,23.5501649 24.959444,19.6458301 C24.959444,16.8809578 24.3047972,14.5601408 23.0037903,12.6666222 L30.6606715,12.6666222 C30.5363715,12.8425686 30.4286448,13.018515 30.3126315,13.1944614 C30.2794848,13.2531102 30.2463382,13.311759 30.2049048,13.3620295 C30.1717581,13.4206783 30.1303248,13.4877055 30.0971781,13.5463543 C30.0806048,13.5798679 30.0557448,13.6133815 30.0391715,13.6468951 C30.0225981,13.6804087 30.0060248,13.7055439 29.9894514,13.7390575 C29.9563048,13.8060847 29.9148714,13.8731119 29.8817248,13.9401391 C29.8237181,14.0574367 29.7657114,14.1663559 29.7077047,14.2836535 C29.6911314,14.3087887 29.6828447,14.333924 29.6662714,14.3674376 C29.5916914,14.5098704 29.525398,14.6523032 29.4673914,14.794736 C29.4673914,14.794736 29.4673914,14.794736 29.4673914,14.794736 C29.450818,14.8282496 29.4342447,14.8701416 29.4176714,14.9036552 C29.401098,14.9455472 29.376238,14.9958176 29.3596647,15.0377096 C29.2933713,15.1885208 29.2353647,15.3309537 29.177358,15.4733865 C29.1607846,15.5069001 29.152498,15.5404137 29.1359246,15.5739273 C29.1193513,15.6241977 29.102778,15.6660897 29.077918,15.7163601 C29.0364846,15.8252793 28.9950513,15.9341985 28.9619046,16.0431177 C28.9453313,16.0766313 28.9370446,16.1101449 28.9287579,16.1520369 C28.9038979,16.2190641 28.8790379,16.2944698 28.8541779,16.361497 C28.8458913,16.3950106 28.8293179,16.4369026 28.8210313,16.4704162 C28.8127446,16.5039298 28.7961713,16.5374434 28.7878846,16.5793354 C28.7795979,16.6044706 28.7713112,16.6296058 28.7630246,16.654741 C28.7630246,16.6631194 28.7547379,16.6798762 28.7547379,16.6882546 C28.7381646,16.738525 28.7215912,16.7887954 28.7050179,16.8390658 C28.6884446,16.8893362 28.6718712,16.9396066 28.6635846,16.989877 C28.6387246,17.0904178 28.6055779,17.1909586 28.5807179,17.2831211 C28.5641445,17.3585267 28.5392845,17.4255539 28.5227112,17.4925811 C28.5144245,17.5344731 28.4978512,17.5847435 28.4895645,17.6266355 C28.4564179,17.7523115 28.4315579,17.8696091 28.4066979,17.9785283 C28.3901245,18.0371771 28.3818379,18.0958259 28.3652645,18.1544747 C28.2989712,18.472854 28.2575378,18.7325844 28.2243912,18.9252876 C28.2161045,18.9923148 28.2078178,19.0509636 28.1995312,19.101234 L28.1829578,19.22691 C28.1746712,19.2771805 28.1746712,19.3023157 28.1746712,19.3023157 L27.006251,28.4180158 L26.4344709,32.7747842 L25.357204,41.0107523 L30.5612315,41.0107523 L31.6302117,32.7747842 L31.9451051,30.3282912 C31.9451051,30.3282912 31.9451051,30.3282912 31.9533918,30.3366696 C32.1854185,30.5461296 32.4920252,30.7723464 32.8566386,31.0069416 C32.8897852,31.0236984 32.9229319,31.0488336 32.9560786,31.0655905 C33.3869853,31.3253209 33.9587654,31.6185649 34.6879922,31.8950521 C34.6962789,31.9034305 34.7128522,31.9034305 34.7211389,31.9118089 C36.0304324,32.3977562 37.8203527,32.8082978 40.1571931,32.8082978 C40.4223664,32.8082978 40.6875398,32.7999194 40.9444265,32.7831626 C41.0107199,32.7747842 41.0852999,32.7747842 41.1515932,32.7664058 C43.9110537,32.5234322 46.1898874,31.2666721 47.9798076,28.987747 C49.9851813,26.4407132 50.9878681,23.1061096 50.9878681,18.9923148 C50.9878681,16.4704162 50.5652481,14.3590592 49.7034346,12.6750006 L56.780249,12.6750006 L56.6890957,13.3871647 L55.8521422,19.9642093 L56.705669,13.3787863 L54.2776753,32.0877554 L54.2776753,32.0877554 L54.1533753,33.0428931 L59.3656895,33.0428931 L59.4899895,32.0877554 L59.4899895,32.0877554 L61.9096965,13.3704079 L61.9096965,13.3704079 L61.9677032,12.9598662 L62.0091365,12.6582438 L69.2185377,12.6582438 C66.6662439,16.4955514 65.3900971,19.7463709 65.3900971,22.4107024 C65.3900971,25.6280083 66.3844972,28.2085558 68.3732976,30.1607232 C70.3620979,32.1128906 72.9972583,33.0847851 76.2953522,33.0847851 C80.1403661,33.0847851 83.3224466,31.9285657 85.8498803,29.6077487 C88.3773141,27.2869317 89.6368876,24.3963834 89.6368876,20.9361038 C89.6368876,19.9474525 89.5457343,19.0090716 89.3551409,18.1377179 Z M17.3357094,25.9631443 C15.8855425,27.5634189 13.9630356,28.3677454 11.5599018,28.3677454 C9.6539682,28.3677454 8.14579463,27.7728789 7.05195446,26.583146 C5.94982761,25.3934131 5.40290753,23.7512465 5.40290753,21.6566463 C5.40290753,19.0258284 6.13213431,16.8725794 7.59887454,15.1885208 C9.05732811,13.5044623 10.9384017,12.6666222 13.2503821,12.6666222 C15.2308958,12.6666222 16.772216,13.2614886 17.8660562,14.4512216 C18.9598964,15.6409545 19.4985996,17.3250131 19.4985996,19.4950189 C19.5068164,22.2096208 18.7775897,24.3628698 17.3357094,25.9631443 Z M43.853047,26.2563884 C43.0326669,27.3874725 41.9885467,28.1163934 40.7289732,28.4347726 C40.2234864,28.568827 39.684853,28.6358542 39.1130729,28.6358542 C38.4998595,28.6358542 37.9197927,28.568827 37.389446,28.4347726 C37.389446,28.4347726 32.3345785,27.5215269 32.9477919,22.1761071 C32.9477919,22.1761071 32.9477919,22.1677287 32.9477919,22.1677287 C32.9477919,22.1677287 32.9477919,22.1593503 32.9477919,22.1593503 C32.9477919,22.1509719 32.9477919,22.1509719 32.9477919,22.1425935 C32.9477919,22.1342151 32.9477919,22.1258367 32.9477919,22.1174583 L32.9477919,22.1090799 L33.1383853,20.5506974 L33.1383853,20.5255622 C33.1715319,20.1485341 33.2129653,19.7882629 33.270972,19.4363701 L33.270972,19.4279917 L33.270972,19.4279917 L33.270972,19.4279917 C33.5361453,17.7439331 34.0747788,16.3447402 34.8868722,15.2304128 C36.0967257,13.5631111 37.7706327,12.7336494 39.9003064,12.7336494 C41.7068,12.7336494 43.1072469,13.3452727 44.0933604,14.5685192 C45.0794738,15.7917657 45.5767627,17.5260947 45.5767627,19.7631277 C45.5849606,22.5028648 45.0131805,24.6728706 43.853047,26.2563884 Z M84.1842601,21.6147543 L84.1179667,22.1007015 C83.9190867,23.7344897 83.2561533,25.1169258 82.1374531,26.24801 C80.7701529,27.6304461 79.0382393,28.317475 76.9417123,28.317475 C75.0854986,28.317475 73.6021851,27.7561221 72.4917715,26.625038 C71.3896447,25.4939539 70.8344379,23.9858417 70.8344379,22.0923231 C70.8344379,21.4471863 70.8924446,20.8439414 71.0167446,20.2658318 C71.0167446,20.2574534 71.0167446,20.249075 71.0167446,20.2406966 C71.3233514,17.8947443 73.6933384,14.6439248 75.2926653,12.6666222 L75.9141654,12.6666222 L76.4279388,12.6666222 C77.7289457,12.683379 84.7643268,13.1944614 84.1842601,21.6147543 Z" id="Shape" fill="#E4E4E3"></path>
                    <polygon id="Path" fill="#000000" fill-rule="nonzero" points="56.6224784 11.5006658 54.0403458 29.7600318 54.0403458 29.7600318 55.1419382 21.9871325 55.7147663 17.9331282"></polygon>
                    <path d="M33.9365994,17.5871211 L33.0144092,20.1692537 C33.0144092,20.1612595 33.0144092,20.1532653 33.0144092,20.145271 L33.0144092,20.1372768 L33.5446686,18.6503522 L33.5446686,18.6263695 L33.9365994,17.5871211 Z" id="Path" fill="#000000" fill-rule="nonzero"></path>
                    <path d="M107.391756,15.7427407 C107.787599,15.7427407 108.175364,15.7931886 108.555051,15.9024924 C108.934738,16.0117961 109.306346,16.1715477 109.669876,16.3985632 L108.482345,19.6608595 C108.231913,19.4758839 107.965325,19.3329482 107.682579,19.2320525 C107.391756,19.1311567 107.084775,19.0807088 106.761637,19.0807088 C105.461008,19.0807088 104.443125,19.5767797 103.699909,20.5773293 C102.956692,21.5778789 102.455829,23.1081313 102.197319,25.1933104 L101.179435,33.0127318 L97.5441372,33.0127318 L99.6606885,16.3228914 L103.158653,16.3228914 L102.892065,18.4921502 C103.522183,17.5672724 104.216929,16.877818 104.960145,16.4237871 C105.71144,15.9697562 106.519284,15.7427407 107.391756,15.7427407 Z M116.280653,15.7427407 L115.40824,22.6858286 C115.383779,22.8362204 115.359319,23.053453 115.326705,23.3375264 C115.12287,24.8497994 115.016876,25.8524114 115.016876,26.3453623 C115.016876,27.414815 115.310399,28.2419699 115.88929,28.8101167 C116.468182,29.3782635 117.299829,29.670692 118.384231,29.670692 C119.884457,29.670692 120.985166,29.252937 121.670052,28.4090719 C122.354937,27.5652068 122.860448,25.9443175 123.162124,23.5464039 L124.189453,15.7427407 L127.858483,15.7427407 L126.765928,24.1563261 C126.480558,26.3286521 126.162576,27.8492802 125.803826,28.7349208 C125.445077,29.6122063 124.939566,30.3725203 124.295447,30.9991528 C123.586101,31.6675608 122.72184,32.1688668 121.694512,32.5030708 C120.667183,32.8372747 119.48494,33.0127318 118.147782,33.0127318 C115.881137,33.0127318 114.177076,32.4863606 113.0356,31.4419731 C111.894124,30.3892305 111.323385,28.8268269 111.323385,26.7547622 C111.323385,26.2033256 111.42938,25.1004524 111.633215,23.4461427 L111.649522,23.4127223 L112.611623,15.7427407 L116.280653,15.7427407 Z M93.6859477,28.512865 C94.303258,28.512865 94.8243642,28.7293244 95.2492661,29.1702604 C95.674168,29.6111963 95.8906274,30.1323024 95.8906274,30.7496128 C95.8906274,31.350889 95.674168,31.8639781 95.2492661,32.2888801 C94.8243642,32.7057649 94.303258,32.9222244 93.6859477,32.9222244 C93.0686374,32.9222244 92.5475313,32.713782 92.1226294,32.2888801 C91.6977275,31.8719952 91.481268,31.3589061 91.481268,30.7496128 C91.481268,30.1323024 91.6977275,29.6111963 92.1226294,29.1702604 C92.5475313,28.7373415 93.0686374,28.512865 93.6859477,28.512865 Z" id="Combined-Shape" fill="#F98202" fill-rule="nonzero"></path>
                </g>
            </g>
        </g>
    </g>
</svg>